<svg fill="none" height="647" viewBox="0 0 623 647" width="623" xmlns="http://www.w3.org/2000/svg"><g fill="#000"><path d="m232.158 62.4106c-2.8 2.1333-7.334 5.7333-9.867 8l-4.667 4.1333 5.334-2.2666c5.733-2.2667 25.866-3.2 33.866-1.3334 4.4.9334 4.534.9334 2.267-1.6-2.667-2.9333-17.067-10.8-19.733-10.8-1.067 0-4.4 1.7334-7.2 3.8667z"/><path d="m373.491 63.3439c-4.267 2.5334-8.8 5.6-9.867 6.8-1.733 1.8667-1.6 2 1.334 1.2 10.933-3.2 26.8-2.1333 39.333 2.5334 2.133.6666 2 .4-.667-2-8.666-7.3334-17.466-13.3334-19.733-13.3334-1.333 0-6 2.1334-10.4 4.8z"/><path d="m379.491 81.344c-24 3.7334-41.467 30.133-35.6 53.467l2 7.733h-4.667c-6.266 0-21.6 2.667-21.6 3.867 0 .4 8.534.666 18.934.4 20.933-.534 62.8 2.533 89.733 6.4 9.467 1.333 17.467 2.266 17.867 2 1.066-1.2-10-5.067-20.134-7.067l-10.266-2 2.666-3.333c1.334-1.867 3.6-6.667 4.667-10.667 5.333-18.4-4-39.3333-21.2-47.3333-8.267-3.8667-14.267-4.8-22.4-3.4667zm22.533 10.9333c15.867 10.3997 20.8 32.6667 10.4 47.8667l-2.933 4.4-25.333-.4c-13.867-.133-26.4-.667-28-.933-5.2-1.2-7.734-18.667-4.4-30 2.533-8.134 10.4-17.467 18.533-21.7337 6.533-3.3333 8.4-3.7333 16.8-3.3333 7.6.4 10.533 1.2 14.933 4.1333z"/><path d="m372.824 102.944c-13.2 8.8-11.466 28.133 3.334 37.067 8 4.933 20.666 2.133 26.266-5.6 3.2-4.534 4.534-11.6 3.334-16.667-.8-3.2-1.067-3.333-3.334-1.333-2.8 2.533-5.6 2.8-7.866.533-2-2-2.134-7.2-.267-8.4 2.4-1.467 1.467-3.333-2.933-6-5.867-3.6-12.934-3.3333-18.534.4z"/><path d="m264.824 155.744c-2.266 2.267-3.866 5.333-3.866 7.333 0 4.667 2.133 4.4 3.066-.266 1.867-9.2 21.867-9.467 31.334-.267 4.133 3.867 5.066 2.667 1.466-1.867-4.266-5.466-12-8.8-20.533-8.8-6.533 0-8 .534-11.467 3.867z"/><path d="m334.291 154.677c-4.533 2.8-10.533 8.8-10.667 10.8 0 .667 2.667-.933 5.867-3.466 3.333-2.4 8.933-5.2 12.667-6.134 5.866-1.333 7.333-1.333 11.733.934 3.6 1.733 5.467 3.733 6.667 7.066 1.2 3.734 1.733 4.267 2.4 2.267 1.2-3.067-1.6-9.867-5.2-12.267-4.267-3.066-17.734-2.533-23.467.8z"/><path d="m343.624 159.477c-4.666 1.734-9.6 6.267-12 11.067-5.066 10-3.6 10.267 9.6 1.867 12.8-8.134 12.667-8 9.734-11.2-2.4-2.667-3.734-3.067-7.334-1.734z"/><path d="m272.024 162.144c-1.066 2.533 2.8 6 13.067 11.733 4 2.134 7.6 4.134 8.267 4.4.533.267.933-1.2.933-3.066 0-2.534-1.867-5.467-5.867-9.467-4.666-4.8-6.666-5.867-10.666-5.867-3.334 0-5.2.667-5.734 2.267z"/><path d="m233.891 101.211c-2.133.666-4.667 1.866-5.733 2.8-1.6 1.333-1.6 1.733-.134 3.066 3.067 2.4 3.6 5.6 1.467 8.667-2.4 3.333-5.467 3.6-8.667.667-2.266-2-2.4-1.867-3.2 2.533-3.2 17.067 18.134 30 32.534 19.6 12.933-9.2 12-29.867-1.6-36.133-6-2.667-8.934-2.9337-14.667-1.2z"/><path d="m190.824 516.277c-.266.934-.4 8.934-.266 17.734l.4 15.866 7.6.4c13.466.667 22.4-6.266 22.4-17.466 0-7.334-3.067-12.267-9.734-15.467-6.666-3.2-19.333-3.867-20.4-1.067z"/><path d="m309.758 522.944c-2 1.467-2.934 5.467-4.534 20.267l-2.133 18.4 3.733 3.066c5.734 5.067 14.267 3.734 16.8-2.666 1.334-3.6-3.2-36.267-5.466-38.934-1.867-2.4-5.334-2.4-8.4-.133z"/></g><path clip-rule="evenodd" d="m337.891 19.2106c28.8 5.4666 53.867 18.5333 75.467 39.2 22.533 21.6 33.066 49.4664 28.933 76.4004-1.333 8.266-2.267 10.8-4.267 11.6-2 .666-.8 1.866 6.534 6.133 13.733 8 18.266 13.2 20.4 23.333 4.933 22.934-10.667 48.267-38 61.467-36.4 17.6-85.467 12.4-110.134-11.6l-4.933-4.8-6.133 6.133c-7.2 6.934-21.467 14.4-34.134 17.734-12 3.2-42.666 3.2-54.666 0-14.667-3.867-31.734-13.067-40.4-21.867-13.067-13.2-16.934-21.6-17.2-37.2-.134-12.4 2.266-19.6 8.4-25.2 4.018-3.528 8.325-6.553 9.742-6.901-.555.317 2.865-1.154 3.291-1.712.426-.559.209-.431.7-.72.491-.29 3.067-2.134 3.867-2.4.8-.267.266-2.134-1.2-4.267-3.6-5.467-4.267-28.8-1.334-40.8 9.734-39.0668 52.8-74.6668 102.134-84.5334 12.133-2.4 40.133-2.4 52.933 0zm-61.867 128.1334c-30.933.133-53.066 1.733-80.933 5.867-2.766.418-5.122.779-7.125 1.087-8.558 1.312-10.686 1.639-10.847 1.217-.053-.14.11-.362.326-.657.098-.134.207-.284.313-.447l4.178-2.375c1.158-.161 3.228-.65 6.355-1.492 5.2-1.333 11.467-2.8 14.133-3.2l4.667-.8-4-8.133c-12.8-26 5.867-57.2004 34.4-57.2004 12.533 0 22 3.8667 30.8 12.6667 9.733 9.8667 13.2 18.9337 12.267 33.3337-.267 5.866-.934 11.6-1.467 12.8-.8 1.866.533 2.266 8.533 3.066 5.2.4 11.2 1.6 13.467 2.534 3.333 1.333-.533 1.6-25.067 1.733zm-53.733-76.9334c2.533-2.2667 7.067-5.8667 9.867-8s6.133-3.8667 7.2-3.8667c2.666 0 17.066 7.8667 19.733 10.8 2.267 2.5334 2.133 2.5334-2.267 1.6-8-1.8666-28.133-.9333-33.866 1.3334l-5.334 2.2666zm141.333-.2667c1.067-1.2 5.6-4.2666 9.867-6.8 4.4-2.6666 9.067-4.8 10.4-4.8 2.267 0 11.067 6 19.733 13.3334 2.667 2.4 2.8 2.6666.667 2-12.533-4.6667-28.4-5.7334-39.333-2.5334-2.934.8-3.067.6667-1.334-1.2zm-19.733 64.6671c-5.867-23.334 11.6-49.7336 35.6-53.467 8.133-1.3333 14.133-.4 22.4 3.4667 17.2 8 26.533 28.9333 21.2 47.3333-1.067 4-3.333 8.8-4.667 10.667l-2.666 3.333 10.266 2c10.134 2 21.2 5.867 20.134 7.067-.4.266-8.4-.667-17.867-2-26.933-3.867-68.8-6.934-89.733-6.4-10.4.266-18.934 0-18.934-.4 0-1.2 15.334-3.867 21.6-3.867h4.667zm-82.933 28.266c0-2 1.6-5.066 3.866-7.333 3.467-3.333 4.934-3.867 11.467-3.867 8.533 0 16.267 3.334 20.533 8.8 3.6 4.534 2.667 5.734-1.466 1.867-9.467-9.2-29.467-8.933-31.334.267-.933 4.666-3.066 4.933-3.066.266zm62.666 2.4c.134-2 6.134-8 10.667-10.8 5.733-3.333 19.2-3.866 23.467-.8 3.6 2.4 6.4 9.2 5.2 12.267-.667 2-1.2 1.467-2.4-2.267-1.2-3.333-3.067-5.333-6.667-7.066-4.4-2.267-5.867-2.267-11.733-.934-3.734.934-9.334 3.734-12.667 6.134-3.2 2.533-5.867 4.133-5.867 3.466zm8 5.067c2.4-4.8 7.334-9.333 12-11.067 3.6-1.333 4.934-.933 7.334 1.734 2.933 3.2 3.066 3.066-9.734 11.2-13.2 8.4-14.666 8.133-9.6-1.867zm-46.533 3.333c-10.267-5.733-14.133-9.2-13.067-11.733.534-1.6 2.4-2.267 5.734-2.267 4 0 6 1.067 10.666 5.867 4 4 5.867 6.933 5.867 9.467 0 1.866-.4 3.333-.933 3.066-.667-.266-4.267-2.266-8.267-4.4z" fill="#44b8ff" fill-rule="evenodd"/><path d="m456.158 45.8773c3.866 4.1333 5.2 10.5333 3.466 16.5333-1.733 6.4-4.266 9.7333-10.133 13.7333-12.267 8.2667-14.933 5.7334-11.733-11.0666 1.866-10.2667 4.266-16.8 7.466-20.9334 2.267-2.6666 7.6-1.8666 10.934 1.7334z" fill="#b974c5"/><path d="m465.091 25.744c11.467 7.7333 15.467 26.5332 8.4 40.6666-5.6 11.0667-24 23.6-30.8 20.8-2-.6666-1.467-1.3333 2.933-3.6 16.667-8.6667 23.734-21.8667 18.667-35.0667-2.667-7.3333-7.6-11.3333-13.6-11.3333-9.6 0-15.2 7.7334-18.133 24.8l-1.734 10.1333-3.6-5.2c-4.133-6-4.666-13.6-1.733-23.6 2.8-9.3333 7.333-15.0666 14.8-18.9333 8.533-4.2667 16.8-3.8666 24.8 1.3334z" fill="#44b8ff"/><path d="m181.624 23.744c9.467 4.4 15.334 13.7333 18.134 28.7999 1.333 7.2 1.2 7.8667-2.267 12.8-2 2.9334-3.867 4.9334-4.133 4.6667-.267-.2666-1.334-4.4-2.4-9.2-4.4-21.2-15.6-30-25.734-20.5333-1.733 1.6-4 4.5333-5.066 6.5333-2.134 4.1333-2.4 14-.534 18.9334 2 5.3333 11.334 14.8 17.334 17.4666 2.933 1.3334 5.333 2.9333 5.333 3.6 0 4-16.933-3.0667-24.533-10.4-8-7.7334-10.8-14.4-10.8-26 0-8.9333.4-10.8 4-16.5333 7.066-11.3334 19.2-15.4667 30.666-10.1333z" fill="#44b8ff"/><path clip-rule="evenodd" d="m177.445 154.858c.098-.134.207-.284.313-.447l4.178-2.375c1.158-.161 3.228-.65 6.355-1.492 5.2-1.333 11.467-2.8 14.133-3.2l4.667-.8-4-8.133c-12.8-26 5.867-57.2004 34.4-57.2004 12.533 0 22 3.8667 30.8 12.6667 9.733 9.8667 13.2 18.9337 12.267 33.3337-.267 5.866-.934 11.6-1.467 12.8-.8 1.866.533 2.266 8.533 3.066 5.2.4 11.2 1.6 13.467 2.534 3.333 1.333-.533 1.6-25.067 1.733-30.933.133-53.066 1.733-80.933 5.867-2.766.418-5.122.779-7.125 1.087-8.558 1.312-10.686 1.639-10.847 1.217-.053-.14.11-.362.326-.657zm74.846-63.7807c17.333 8.1333 25.733 27.0667 20.133 45.4667-1.333 4.667-2.133 5.333-6.8 6.133-2.933.534-15.866 1.067-28.666 1.334l-23.334.533-3.866-7.867c-3.2-6.266-4-9.466-3.867-16 .133-9.466 1.733-14 7.2-20.933 8.933-11.3334 25.733-15.0667 39.2-8.6667z" fill="#000" fill-rule="evenodd"/><path d="m300.291 274.677c2.933.8 6.8 2.534 8.533 3.867 3.067 2.267 3.467 2.133 7.867-.8 2.533-1.733 6.667-3.6 9.333-4 8.4-1.6 25.6 3.333 25.6 7.333 0 4.134-45.6 7.067-63.733 4.134-5.6-.934-11.6-2.134-13.467-2.8l-3.2-1.334 3.2-2.133c3.2-2.4 13.2-5.467 17.867-5.6 1.467-.133 5.067.533 8 1.333z" fill="#fe6e42"/><path clip-rule="evenodd" d="m290.291.810612c-21.867 3.466668-44 11.466688-63.333 23.066688-7.334 4.4-13.734 8-14.134 8s-2.666-2.9334-4.933-6.5334c-11.067-17.86663-34.8-25.066658-52.8-16.13332-22.8 11.46662-32 38.93332-20.933 63.33332 4.666 10.2667 9.866 16.2667 21.2 23.8667l8.933 6.1334-.133 20.667-.267 20.533-9.333 9.067c-9.734 9.6-14.534 17.466-18.267 30.4-3.067 10.533-2.133 30.266 1.867 40.666 1.466 4 2.8 7.867 2.8 8.667 0 .667-3.734 3.467-8.134 6-9.466 5.333-21.2 17.467-25.733 26.4-1.733 3.467-4.4 10.267-6 15.067l-2.8 8.666-11.0666 1.467c-40.8 5.467-72.9334 32.933-83.60004 71.2-7.86667 28.533-2.666672 63.067 13.06664 86.133 14.5334 21.467 34 34.4 59.3334 39.6 12.2666 2.534 20.1333 2.667 37.3336.534 6.559-.798 10.732-2.053 13.419-.586 5.397 2.947 4.802 16.87 5.514 67.519.933 58.667 1.2 63.733 3.6 69.333 10.133 23.467 41.6 29.867 60.933 12.534 7.734-6.934 11.467-13.334 13.6-23.2.8-3.6 2-7.067 2.8-7.467.667-.4 5.2-1.733 10.134-2.8 4.933-1.067 10.133-2.267 11.733-2.667 2.533-.533 2.933 0 3.467 8 .933 10.534 4.933 19.467 12.133 26.667 7.733 7.733 15.6 10.933 27.6 10.933 12.267 0 19.333-3.066 29.067-12.8l6.666-6.666 6.534 6.4c9.6 9.733 17.333 12.933 30.4 13.066 12.8 0 18.8-2.666 29.066-12.933l6.667-6.667 6.133 6.267c9.6 9.733 17.334 13.2 30.134 13.2 8.666.133 11.733-.4 16.666-2.933 8.134-4.267 14.267-10.267 18.4-18.267 3.2-6 3.6-8.4 4-24l.534-17.2 7.6-8.267c4.133-4.666 9.333-11.733 11.333-15.866 4.933-10.134 9.6-29.067 11.467-46.134 1.6-15.466 3.333-19.2 10.8-22.8 4.133-2.133 6.266-2.266 19.6-.933 12.133 1.067 17.2.933 27.2-.667 27.6-4.666 52.133-22.533 63.466-46.266 8-16.934 8.534-20.934 8-74.534l-.4-47.333-4-7.2c-14.666-26.533-47.466-30.133-69.066-7.467-3.867 4-8 7.334-9.2 7.334-1.067 0-4.4-1.734-7.334-3.867l-5.466-3.867-.534-13.333c-.4-12-.933-14.133-5.466-23.333-6.4-12.8-14.534-21.867-27.067-29.867-8.267-5.2-9.867-6.8-9.2-9.067.133-.488.4-1.48.755-2.803l.003-.01c.711-2.647 1.776-6.613 2.842-10.52 6.4-24.8-1.733-50.667-20.8-66.267l-7.067-5.733v-18c-.133-9.867-.4-19.467-.666-21.2-.267-2.667.666-3.867 4.933-6.2667 10.133-5.7334 18.667-14.5333 24-24.8 4.533-8.6667 5.2-11.0667 5.733-21.0667.667-14.5334-2.533-23.6-11.733-33.7333-15.733-17.2-38-18.933359-57.733-4.4-2.134 1.4666-6 5.7333-8.667 9.4666-1.467 1.9799-2.812 3.8791-3.771 5.232-.784 1.107-1.309 1.8481-1.429 1.9681-.133.2666-3.6-1.6-7.6-4.2667-3.867-2.5333-12-7.2-17.867-10.1334-25.866-12.9333-45.2-17.599943-73.2-17.3332761-10.133.1333331-19.866.3999881-21.733.7999881zm123.067 57.599988c-21.6-20.6667-46.667-33.7334-75.467-39.2-12.8-2.4-40.8-2.4-52.933 0-49.334 9.8666-92.4 45.4666-102.134 84.5334-2.933 12-2.266 35.333 1.334 40.8 1.466 2.133 2 4 1.2 4.267-.8.266-3.376 2.11-3.867 2.4-.491.289-.274.161-.7.72-.426.558-3.846 2.029-3.291 1.712-1.417.348-5.724 3.373-9.742 6.901-6.134 5.6-8.534 12.8-8.4 25.2.266 15.6 4.133 24 17.2 37.2 8.666 8.8 25.733 18 40.4 21.867 12 3.2 42.666 3.2 54.666 0 12.667-3.334 26.934-10.8 34.134-17.734l6.133-6.133 4.933 4.8c24.667 24 73.734 29.2 110.134 11.6 27.333-13.2 42.933-38.533 38-61.467-2.134-10.133-6.667-15.333-20.4-23.333-7.334-4.267-8.534-5.467-6.534-6.133 2-.8 2.934-3.334 4.267-11.6 4.133-26.934-6.4-54.8004-28.933-76.4004zm-213.6-5.8667c-2.8-15.0666-8.667-24.3999-18.134-28.7999-11.466-5.3334-23.6-1.2001-30.666 10.1333-3.6 5.7333-4 7.6-4 16.5333 0 11.6 2.8 18.2666 10.8 26 7.6 7.3333 24.533 14.4 24.533 10.4 0-.6667-2.4-2.2666-5.333-3.6-6-2.6666-15.334-12.1333-17.334-17.4666-1.866-4.9334-1.6-14.8001.534-18.9334 1.066-2 3.333-4.9333 5.066-6.5333 10.134-9.4667 21.334-.6667 25.734 20.5333 1.066 4.8 2.133 8.9334 2.4 9.2.266.2667 2.133-1.7333 4.133-4.6667 3.467-4.9333 3.6-5.6 2.267-12.8zm273.733 13.8667c7.067-14.1334 3.067-32.9333-8.4-40.6666-8-5.2-16.267-5.6001-24.8-1.3334-7.467 3.8667-12 9.6-14.8 18.9333-2.933 10-2.4 17.6 1.733 23.6l3.6 5.2 1.734-10.1333c2.933-17.0666 8.533-24.8 18.133-24.8 6 0 10.933 4 13.6 11.3333 5.067 13.2-2 26.4-18.667 35.0667-4.4 2.2667-4.933 2.9334-2.933 3.6 6.8 2.8 25.2-9.7333 30.8-20.8zm-286.933 13.3334c2.933-4.4-1.734-26.9334-7.067-33.7334-4.133-5.3333-10.533-4.5333-13.867 1.8667-2.666 5.0666-2.533 13.7333.134 19.3333 3.733 8 18 16.5334 20.8 12.5334zm273.066-17.3334c1.734-6 .4-12.4-3.466-16.5333-3.334-3.6-8.667-4.4-10.934-1.7334-3.2 4.1334-5.6 10.6667-7.466 20.9334-3.2 16.8-.534 19.3333 11.733 11.0666 5.867-4 8.4-7.3333 10.133-13.7333zm-257.333 211.4664c-11.467-5.733-29.733-18.533-35.867-25.2-3.866-4-4.933-4.133-15.066-.933-9.6 3.067-15.6 6.8-21.6 13.467-10.534 11.733-19.467 38.133-13.467 40.4 2.267.933 2.4.8 5.2-8 2.533-7.6 8.4-13.734 13.2-13.734 5.2 0 11.2 4.8 12.933 10.267.372 1.302.802 2.662 1.182 3.851l.159.498.001.002c.366 1.144.667 2.083.792 2.582.4 1.067 1.866-.533 3.6-3.866 8.133-15.334 24-15.6 32.533-.667 2.133 3.867 3.067 4.533 3.067 2.667 0-4.8 4.933-10.934 10-12.667 4.133-1.333 5.866-1.2 10.666.533 3.2 1.2 7.334 3.734 9.2 5.467 3.067 2.933 3.467 2.933 3.467.667 0-3.467-6.667-8.667-20-15.334zm305.467 10.134c-5.067-16.4-14-26.8-28.667-33.467-13.733-6.4-14.933-6.267-24.8 2.133-12.133 10.4-17.867 14.267-35.6 23.6-12.533 6.8-15.733 9.067-16.533 11.867l-.934 3.6 5.2-4.133c7.467-6 17.6-6.8 22.934-1.867 2 1.867 4 5.333 4.533 7.6l.8 4.267 2-3.867c8.4-16.667 27.333-15.867 35.067 1.333 1.6 3.734 2.4 4.534 2.533 2.8.267-8.266 8.533-18 15.2-18 3.733 0 10.133 7.2 13.2 14.8 2.533 6.4 3.467 7.334 5.333 6.267 2.934-1.6 2.934-6.8-.266-16.933zm-198.934-5.467c-1.733-1.333-5.6-3.067-8.533-3.867s-6.533-1.466-8-1.333c-4.667.133-14.667 3.2-17.867 5.6l-3.2 2.133 3.2 1.334c1.867.666 7.867 1.866 13.467 2.8 18.133 2.933 63.733 0 63.733-4.134 0-4-17.2-8.933-25.6-7.333-2.666.4-6.8 2.267-9.333 4-4.4 2.933-4.8 3.067-7.867.8zm-162.933 28.133c-.8-9.333-3.733-18.533-6.667-20.4-3.2-2-7.466-1.066-10.133 2.4-2.8 3.6-6.8 14.934-6.8 19.467 0 3.467 9.733 7.733 17.867 7.733h6.533zm356.4 1.734c0-3.2-5.333-16.267-8.133-19.734-7.067-9.066-14-.933-16.534 19.734l-.933 7.466h7.067c7.733 0 18.533-4.266 18.533-7.466zm-316 .266c0-6-3.067-13.466-7.333-17.733-8.267-8.267-19.467-4.4-23.867 8.533-4.4 12.667-1.6 16.4 12.133 16.4 10.534 0 19.067-3.2 19.067-7.2zm33.333-10c0-3.066-4.8-7.466-10.933-10.133-5.733-2.267-6-2.267-10-.4-5.467 2.667-7.733 17.6-3.333 21.467 4.533 4.133 11.6 2.533 19.466-4.4 2.667-2.4 4.8-5.334 4.8-6.534zm211.334 2.267c-1.467-7.733-3.467-11.333-6.8-12.933-1.782-.805-2.796-1.263-3.832-1.32-1.367-.076-2.773.545-6.035 1.986-5.867 2.534-10.667 6.934-10.667 9.867 0 4.8 12.667 13.333 19.867 13.333 5.467 0 8.667-4.8 7.467-10.933zm36.666 12.933c5.067-4.533 1.734-18.4-6-24.4-9.2-7.333-21.2.667-24 16-.933 4.667-.8 4.934 4.934 7.867 7.6 3.867 20.933 4.267 25.066.533zm-328.4 10.134c-4.533-.934-14.533-4.4-22.266-7.6-15.067-6.534-22.1336-7.734-32.9336-5.734-23.4667 4.134-45.7334 20.8-55.6 41.6-6.4 13.6-8.1334 22.134-8 38.934.1333 12.266.6666 16.4 3.7333 25.333 10.9333 32 37.2 51.467 69.4667 51.6 21.3336.133 37.7336-6.667 51.8666-21.6 17.733-18.933 24-43.733 14.8-59.333-6.267-10.8-7.867-11.334-34.267-11.334-15.6 0-24.133.534-26.2663 1.734-12 6.133-11.6 24.133.5333 30.133 2.133 1.067 7.733 1.867 12.533 2 4.934.133 9.6.667 10.534 1.333 4.533 2.8-1.867 12.8-11.067 16.934-16.2666 7.466-38.2666-.934-46.9333-18-4.6667-8.934-5.8667-27.2-2.5333-36.134 6.1333-16 19.2-24.8 36.9333-24.8 10.1333 0 16.6663 1.6 28.6663 6.8 4.534 2 8 2.8 10.267 2.134 5.067-1.2 12.133-7.867 14.8-14 4.667-10.134-.533-17.467-14.267-20zm286.267-4.667c-8.267-.133-10.267-.667-16.4-4.533-6.267-3.867-8-4.267-16.533-4.134-20.134.267-38.4 7.867-53.067 22.534-20.533 20.4-27.6 53.066-18 83.6 9.867 30.933 36.933 51.066 69.067 51.333 13.733 0 22.933-1.867 33.066-6.933 19.467-9.867 32.934-27.334 37.334-48.534 2.8-13.866-.8-26.533-9.734-33.333-4.4-3.467-4.933-3.467-27.466-3.467-25.334 0-29.2.934-32.8 8-2.667 5.067-2.534 12.667.133 17.334 3.467 5.733 9.2 8.4 19.067 8.666 8.307.268 10.929.297 11.755 1.529.407.608.378 1.507.378 2.871 0 2.534-1.467 5.2-4.267 8-17.066 16.4-48.133 7.6-56.933-16.133-5.6-15.467-2.8-34 6.933-44.533 8.134-8.8 14.134-11.467 27.6-12.134 9.867-.533 12.667-.133 21.334 3.067 13.527 4.797 16.769 6.073 19.609 5.468 1.107-.236 2.154-.758 3.724-1.468 6.933-3.333 12.667-11.6 12.667-18.267 0-7.333-1.467-9.466-10.267-14.533-6.667-3.733-9.067-4.4-17.2-4.4zm176.133 52.533c0-50.666-.133-51.2-8.533-57.2-9.067-6.533-23.867-3.733-29.467 5.467-2.533 4.133-2.666 6.667-2.666 48.4 0 40-.267 44.533-2.534 49.467-6.666 14.666-26.4 18-37.6 6.4l-4.533-4.667-1.333-95.867-3.467-3.333-3.333-3.467-8.934 3.334c-4.8 1.866-12.533 3.866-17.2 4.4l-8.4 1.066-.4 43.334c-.266 35.466 0 45.066 1.734 52.8 3.733 16.933 15.6 32.533 30.266 40 18.534 9.466 43.734 9.333 62.667-.267 8.267-4.267 21.2-16.133 25.6-23.733 7.867-13.6 8.133-16.134 8.133-66.134zm-345.866 53.734c-8.534 7.2-21.867 7.733-29.6 1.333-7.867-6.666-7.867-6.8-8-55.993v-.007c0-24.8-.534-47.467-.934-50.4l-.933-5.333-7.867 2.533c-6.533 2.133-8.8 2.267-13.333 1.067-4.933-1.334-5.733-1.067-8.8 1.6-1.867 1.6-4.933 4-6.933 5.2l-3.734 2.266v42.667c0 25.867.534 45.333 1.467 49.6 3.467 16.667 15.867 33.733 30 41.333 31.067 16.8 74.133 5.334 89.6-24 8-15.066 8.267-17.6 8.267-67.733 0-41.467-.267-45.867-2.267-48.4-2-2.267-5.2-3.2-17.733-4.8-8.4-1.067-16.667-2-18.267-2h-3.067v49.333c0 54.134-.133 55.2-7.866 61.734zm-1.067 86c-7.467-15.867-20.533-25.6-39.733-29.734-10.134-2.133-31.067-2.4-40.534-.533-8.933 1.733-15.2 5.6-18.4 11.333-2.933 5.2-3.066 5.6-3.066 62.534 0 54.533.133 57.6 2.666 61.6 3.734 6.133 9.6 8.8 17.867 8 5.6-.534 7.333-1.334 11.733-6l5.067-5.467v-12c0-10.933.267-12.133 2.933-14 1.734-1.333 5.734-2.133 9.734-2.133 21.866 0 42.8-12.934 51.866-32 3.6-7.734 4.134-10 4.134-20.667s-.534-12.933-4.267-20.933zm93.6-9.734c-4.4-9.2-13.6-17.333-22.4-20-11.2-3.333-20.267-2.4-30.933 3.067-11.867 6-17.467 16.4-22.534 41.6-4.933 24.4-9.733 53.333-11.6 69.733-1.466 12.8-1.466 14.8.534 18.934 5.6 11.6 21.866 13.466 30.8 3.466 1.466-1.6 3.333-6.266 4.133-10.533 1.867-9.467 4.267-10.933 18-10.933 12 0 15.467 1.866 16.8 9.066 2.267 12.267 9.2 18.934 19.867 18.934 10 0 18-7.867 18-17.6 0-13.6-16.134-96.134-20.667-105.734zm122.667 20.8c3.733-24.133 2-34.533-6.267-38.933-10.8-5.867-24.533-2.267-27.6 7.067-.8 2.4-2 12.666-2.667 22.933-1.066 16.267-1.6 18.8-4.266 21.6-4.134 4.4-11.6 4.4-15.867-.133-2.667-2.934-3.333-5.6-4.933-22.934-1.2-12.533-2.534-20.8-3.867-22.8-5.333-8.266-17.867-10.666-26-5.2-7.333 4.934-8.133 7.6-7.333 24.934.666 18 3.466 32.133 8 41.066 3.333 6.667 12.133 15.334 19.2 19.2l4.266 2.267v19.067c0 15.466.4 20 2.4 23.733 7.067 14.133 26.8 14.133 33.867 0 2-3.867 2.4-8.267 2.4-24.267v-19.466l6.533-4.934c12.8-9.333 18.8-21.066 22.134-43.2z" fill="#000" fill-rule="evenodd"/><path d="m494.158 288.677c2.8 3.467 8.133 16.534 8.133 19.734s-10.8 7.466-18.533 7.466h-7.067l.933-7.466c2.534-20.667 9.467-28.8 16.534-19.734z" fill="#94c8fc"/><path d="m461.624 289.477c7.734 6 11.067 19.867 6 24.4-4.133 3.734-17.466 3.334-25.066-.533-5.734-2.933-5.867-3.2-4.934-7.867 2.8-15.333 14.8-23.333 24-16z" fill="#94c8fc"/><path d="m424.158 288.011c3.333 1.6 5.333 5.2 6.8 12.933 1.2 6.133-2 10.933-7.467 10.933-7.2 0-19.867-8.533-19.867-13.333 0-2.933 4.8-7.333 10.667-9.867 3.262-1.441 4.668-2.062 6.035-1.986 1.036.057 2.05.515 3.832 1.32z" fill="#94c8fc"/><path d="m208.691 288.544c6.133 2.667 10.933 7.067 10.933 10.133 0 1.2-2.133 4.134-4.8 6.534-7.866 6.933-14.933 8.533-19.466 4.4-4.4-3.867-2.134-18.8 3.333-21.467 4-1.867 4.267-1.867 10 .4z" fill="#94c8fc"/><path d="m139.224 286.277c2.934 1.867 5.867 11.067 6.667 20.4l.8 9.2h-6.533c-8.134 0-17.867-4.266-17.867-7.733 0-4.533 4-15.867 6.8-19.467 2.667-3.466 6.933-4.4 10.133-2.4z" fill="#94c8fc"/><path d="m178.958 290.944c4.266 4.267 7.333 11.733 7.333 17.733 0 4-8.533 7.2-19.067 7.2-13.733 0-16.533-3.733-12.133-16.4 4.4-12.933 15.6-16.8 23.867-8.533z" fill="#94c8fc"/><path d="m179.491 46.0106c5.333 6.8 10 29.3334 7.067 33.7334-2.8 4-17.067-4.5334-20.8-12.5334-2.667-5.6-2.8-14.2667-.134-19.3333 3.334-6.4 9.734-7.2 13.867-1.8667z" fill="#b974c5"/><path d="m166.424 248.677c6.134 6.667 24.4 19.467 35.867 25.2 13.333 6.667 20 11.867 20 15.334 0 2.266-.4 2.266-3.467-.667-1.866-1.733-6-4.267-9.2-5.467-4.8-1.733-6.533-1.866-10.666-.533-5.067 1.733-10 7.867-10 12.667 0 1.866-.934 1.2-3.067-2.667-8.533-14.933-24.4-14.667-32.533.667-1.734 3.333-3.2 4.933-3.6 3.866-.125-.499-.426-1.438-.792-2.582l-.001-.002-.159-.498c-.38-1.189-.81-2.549-1.182-3.851-1.733-5.467-7.733-10.267-12.933-10.267-4.8 0-10.667 6.134-13.2 13.734-2.8 8.8-2.933 8.933-5.2 8-6-2.267 2.933-28.667 13.467-40.4 6-6.667 12-10.4 21.6-13.467 10.133-3.2 11.2-3.067 15.066.933z" fill="#47b6f7"/><path d="m479.091 250.544c14.667 6.667 23.6 17.067 28.667 33.467 3.2 10.133 3.2 15.333.266 16.933-1.866 1.067-2.8.133-5.333-6.267-3.067-7.6-9.467-14.8-13.2-14.8-6.667 0-14.933 9.734-15.2 18-.133 1.734-.933.934-2.533-2.8-7.734-17.2-26.667-18-35.067-1.333l-2 3.867-.8-4.267c-.533-2.267-2.533-5.733-4.533-7.6-5.334-4.933-15.467-4.133-22.934 1.867l-5.2 4.133.934-3.6c.8-2.8 4-5.067 16.533-11.867 17.733-9.333 23.467-13.2 35.6-23.6 9.867-8.4 11.067-8.533 24.8-2.133z" fill="#47b6f7"/><path d="m167.181 159c.42.841.841 1.683 1.274 2.55-.386 1.137-.772 2.274-1.17 3.445-3.585 10.925-2.498 24.415 2.445 34.798 11.998 19.599 31.44 30.275 53.189 35.593 23.754 5.002 52.528 1.851 73.077-11.373 3.18-2.274 5.931-4.64 8.603-7.489 2.788-2.709 2.788-2.709 7.887-2.709 2.101 1.638 2.101 1.638 4.302 3.904 17.688 16.124 41.96 20.395 65.109 19.61 22.953-1.432 46.167-10.18 61.873-27.338 9.965-12.08 14.108-25.21 12.746-40.793-.388-2.131-.802-4.259-1.274-6.374 6.116 5.026 9.56 11.231 10.498 19.099 1.381 19.569-2.578 34.645-15.597 49.739-13.188 14.435-32.027 22.398-51.367 23.344-15.05.453-28.658-.479-42.954-5.497-1.007-.349-2.014-.698-3.051-1.058-13.36-4.74-25.189-10.212-36.656-18.587-3.426-2.323-3.426-2.323-6.99-1.912-3.09 1.19-5.309 2.522-7.951 4.507-15.536 10.664-33.117 16.013-51.144 20.874-1.207.352-1.207.352-2.439.711-20.67 4.381-44.307 1.545-62.048-9.948-10.16-7.407-18.331-15.599-24.735-26.457-.554-.905-1.108-1.81-1.678-2.743-3.712-7.359-3.94-14.741-4.058-22.832-.024-1.069-.048-2.139-.072-3.241.109-10.839 4.375-22.017 12.181-29.823z" fill="#3e6ea5"/><path d="m212 266.937c27.589-1.645 27.589-1.645 35.155 4.344.969.872 1.937 1.743 2.935 2.641 18.928 16.544 52.776 15.781 76.724 15.259 21.51-.786 41.73-4.924 59.496-16.792 1.45-.45 2.9-.9 4.394-1.363.484-1.349.967-2.699 1.465-4.089h27.831c-11.865 13.801-29.38 20.076-46.873 25.897-1.043.348-2.085.696-3.159 1.055-42.141 13.644-89.938 9.428-130.04-7.801-10.901-4.958-19.471-11.104-27.928-19.151z" fill="#3c6797"/><path d="m482.085 254c4.517 1.073 7.717 3.238 11.606 7.038.965.926 1.93 1.852 2.924 2.806 2.802 3.113 5.054 6.492 7.385 10.464-.381 1.218-.761 2.437-1.153 3.692-3.246-1.184-6.49-2.378-9.733-3.577-.925-.337-1.851-.673-2.804-1.02-6.941-2.578-6.941-2.578-8.225-4.634-.163-4.93-.049-9.829 0-14.769z" fill="#bed9ed"/><path d="m139.507 257.322c-.849 4.944-1.698 9.888-2.573 14.981-4.766.454-9.531.907-14.441 1.375 3.22-6.731 4.45-8.632 8.634-12.494.899-.849 1.799-1.699 2.726-2.574 2.47-1.835 2.47-1.835 5.654-1.288z" fill="#b7daf1"/></svg>