<svg width="623" height="647" viewBox="0 0 623 647" fill="none" xmlns="http://www.w3.org/2000/svg">
<path d="M232.158 62.4106C229.358 64.5439 224.824 68.1439 222.291 70.4106L217.624 74.5439L222.958 72.2773C228.691 70.0106 248.824 69.0773 256.824 70.9439C261.224 71.8773 261.358 71.8773 259.091 69.3439C256.424 66.4106 242.024 58.5439 239.358 58.5439C238.291 58.5439 234.958 60.2773 232.158 62.4106Z" fill="black"/>
<path d="M373.491 63.3439C369.224 65.8773 364.691 68.9439 363.624 70.1439C361.891 72.0106 362.024 72.1439 364.958 71.3439C375.891 68.1439 391.758 69.2106 404.291 73.8773C406.424 74.5439 406.291 74.2773 403.624 71.8773C394.958 64.5439 386.158 58.5439 383.891 58.5439C382.558 58.5439 377.891 60.6773 373.491 63.3439Z" fill="black"/>
<path d="M379.491 81.344C355.491 85.0774 338.024 111.477 343.891 134.811L345.891 142.544H341.224C334.958 142.544 319.624 145.211 319.624 146.411C319.624 146.811 328.158 147.077 338.558 146.811C359.491 146.277 401.358 149.344 428.291 153.211C437.758 154.544 445.758 155.477 446.158 155.211C447.224 154.011 436.158 150.144 426.024 148.144L415.758 146.144L418.424 142.811C419.758 140.944 422.024 136.144 423.091 132.144C428.424 113.744 419.091 92.8107 401.891 84.8107C393.624 80.944 387.624 80.0107 379.491 81.344ZM402.024 92.2773C417.891 102.677 422.824 124.944 412.424 140.144L409.491 144.544L384.158 144.144C370.291 144.011 357.758 143.477 356.158 143.211C350.958 142.011 348.424 124.544 351.758 113.211C354.291 105.077 362.158 95.744 370.291 91.4773C376.824 88.144 378.691 87.744 387.091 88.144C394.691 88.544 397.624 89.344 402.024 92.2773Z" fill="black"/>
<path d="M372.824 102.944C359.624 111.744 361.358 131.077 376.158 140.011C384.158 144.944 396.824 142.144 402.424 134.411C405.624 129.877 406.958 122.811 405.758 117.744C404.958 114.544 404.691 114.411 402.424 116.411C399.624 118.944 396.824 119.211 394.558 116.944C392.558 114.944 392.424 109.744 394.291 108.544C396.691 107.077 395.758 105.211 391.358 102.544C385.491 98.944 378.424 99.2107 372.824 102.944Z" fill="black"/>
<path d="M264.824 155.744C262.558 158.011 260.958 161.077 260.958 163.077C260.958 167.744 263.091 167.477 264.024 162.811C265.891 153.611 285.891 153.344 295.358 162.544C299.491 166.411 300.424 165.211 296.824 160.677C292.558 155.211 284.824 151.877 276.291 151.877C269.758 151.877 268.291 152.411 264.824 155.744Z" fill="black"/>
<path d="M334.291 154.677C329.758 157.477 323.758 163.477 323.624 165.477C323.624 166.144 326.291 164.544 329.491 162.011C332.824 159.611 338.424 156.811 342.158 155.877C348.024 154.544 349.491 154.544 353.891 156.811C357.491 158.544 359.358 160.544 360.558 163.877C361.758 167.611 362.291 168.144 362.958 166.144C364.158 163.077 361.358 156.277 357.758 153.877C353.491 150.811 340.024 151.344 334.291 154.677Z" fill="black"/>
<path d="M343.624 159.477C338.958 161.211 334.024 165.744 331.624 170.544C326.558 180.544 328.024 180.811 341.224 172.411C354.024 164.277 353.891 164.411 350.958 161.211C348.558 158.544 347.224 158.144 343.624 159.477Z" fill="black"/>
<path d="M272.024 162.144C270.958 164.677 274.824 168.144 285.091 173.877C289.091 176.011 292.691 178.011 293.358 178.277C293.891 178.544 294.291 177.077 294.291 175.211C294.291 172.677 292.424 169.744 288.424 165.744C283.758 160.944 281.758 159.877 277.758 159.877C274.424 159.877 272.558 160.544 272.024 162.144Z" fill="black"/>
<path d="M233.891 101.211C231.758 101.877 229.224 103.077 228.158 104.011C226.558 105.344 226.558 105.744 228.024 107.077C231.091 109.477 231.624 112.677 229.491 115.744C227.091 119.077 224.024 119.344 220.824 116.411C218.558 114.411 218.424 114.544 217.624 118.944C214.424 136.011 235.758 148.944 250.158 138.544C263.091 129.344 262.158 108.677 248.558 102.411C242.558 99.744 239.624 99.4773 233.891 101.211Z" fill="black"/>
<path d="M190.824 516.277C190.558 517.211 190.424 525.211 190.558 534.011L190.958 549.877L198.558 550.277C212.024 550.944 220.958 544.011 220.958 532.811C220.958 525.477 217.891 520.544 211.224 517.344C204.558 514.144 191.891 513.477 190.824 516.277Z" fill="black"/>
<path d="M309.758 522.944C307.758 524.411 306.824 528.411 305.224 543.211L303.091 561.611L306.824 564.677C312.558 569.744 321.091 568.411 323.624 562.011C324.958 558.411 320.424 525.744 318.158 523.077C316.291 520.677 312.824 520.677 309.758 522.944Z" fill="black"/>
<path fill-rule="evenodd" clip-rule="evenodd" d="M337.891 19.2106C366.691 24.6772 391.758 37.7439 413.358 58.4106C435.891 80.0106 446.424 107.877 442.291 134.811C440.958 143.077 440.024 145.611 438.024 146.411C436.024 147.077 437.224 148.277 444.558 152.544C458.291 160.544 462.824 165.744 464.958 175.877C469.891 198.811 454.291 224.144 426.958 237.344C390.558 254.944 341.491 249.744 316.824 225.744L311.891 220.944L305.758 227.077C298.558 234.011 284.291 241.477 271.624 244.811C259.624 248.011 228.958 248.011 216.958 244.811C202.291 240.944 185.224 231.744 176.558 222.944C163.491 209.744 159.624 201.344 159.358 185.744C159.224 173.344 161.624 166.144 167.758 160.544C171.776 157.016 176.083 153.991 177.5 153.643C176.945 153.96 180.365 152.489 180.791 151.931C181.217 151.372 181 151.5 181.491 151.211C181.982 150.921 184.558 149.077 185.358 148.811C186.158 148.544 185.624 146.677 184.158 144.544C180.558 139.077 179.891 115.744 182.824 103.744C192.558 64.6772 235.624 29.0772 284.958 19.2106C297.091 16.8106 325.091 16.8106 337.891 19.2106ZM276.024 147.344C245.091 147.477 222.958 149.077 195.091 153.211C192.325 153.629 189.969 153.99 187.966 154.298C179.408 155.61 177.28 155.937 177.119 155.515C177.066 155.375 177.229 155.153 177.445 154.858C177.543 154.724 177.652 154.574 177.758 154.411L181.936 152.036C183.094 151.875 185.164 151.386 188.291 150.544C193.491 149.211 199.758 147.744 202.424 147.344L207.091 146.544L203.091 138.411C190.291 112.411 208.958 81.2106 237.491 81.2106C250.024 81.2106 259.491 85.0773 268.291 93.8773C278.024 103.744 281.491 112.811 280.558 127.211C280.291 133.077 279.624 138.811 279.091 140.011C278.291 141.877 279.624 142.277 287.624 143.077C292.824 143.477 298.824 144.677 301.091 145.611C304.424 146.944 300.558 147.211 276.024 147.344ZM222.291 70.4106C224.824 68.1439 229.358 64.5439 232.158 62.4106C234.958 60.2773 238.291 58.5439 239.358 58.5439C242.024 58.5439 256.424 66.4106 259.091 69.3439C261.358 71.8773 261.224 71.8773 256.824 70.9439C248.824 69.0773 228.691 70.0106 222.958 72.2773L217.624 74.5439L222.291 70.4106ZM363.624 70.1439C364.691 68.9439 369.224 65.8773 373.491 63.3439C377.891 60.6773 382.558 58.5439 383.891 58.5439C386.158 58.5439 394.958 64.5439 403.624 71.8773C406.291 74.2773 406.424 74.5439 404.291 73.8773C391.758 69.2106 375.891 68.1439 364.958 71.3439C362.024 72.1439 361.891 72.0106 363.624 70.1439ZM343.891 134.811C338.024 111.477 355.491 85.0774 379.491 81.344C387.624 80.0107 393.624 80.944 401.891 84.8107C419.091 92.8107 428.424 113.744 423.091 132.144C422.024 136.144 419.758 140.944 418.424 142.811L415.758 146.144L426.024 148.144C436.158 150.144 447.224 154.011 446.158 155.211C445.758 155.477 437.758 154.544 428.291 153.211C401.358 149.344 359.491 146.277 338.558 146.811C328.158 147.077 319.624 146.811 319.624 146.411C319.624 145.211 334.958 142.544 341.224 142.544H345.891L343.891 134.811ZM260.958 163.077C260.958 161.077 262.558 158.011 264.824 155.744C268.291 152.411 269.758 151.877 276.291 151.877C284.824 151.877 292.558 155.211 296.824 160.677C300.424 165.211 299.491 166.411 295.358 162.544C285.891 153.344 265.891 153.611 264.024 162.811C263.091 167.477 260.958 167.744 260.958 163.077ZM323.624 165.477C323.758 163.477 329.758 157.477 334.291 154.677C340.024 151.344 353.491 150.811 357.758 153.877C361.358 156.277 364.158 163.077 362.958 166.144C362.291 168.144 361.758 167.611 360.558 163.877C359.358 160.544 357.491 158.544 353.891 156.811C349.491 154.544 348.024 154.544 342.158 155.877C338.424 156.811 332.824 159.611 329.491 162.011C326.291 164.544 323.624 166.144 323.624 165.477ZM331.624 170.544C334.024 165.744 338.958 161.211 343.624 159.477C347.224 158.144 348.558 158.544 350.958 161.211C353.891 164.411 354.024 164.277 341.224 172.411C328.024 180.811 326.558 180.544 331.624 170.544ZM285.091 173.877C274.824 168.144 270.958 164.677 272.024 162.144C272.558 160.544 274.424 159.877 277.758 159.877C281.758 159.877 283.758 160.944 288.424 165.744C292.424 169.744 294.291 172.677 294.291 175.211C294.291 177.077 293.891 178.544 293.358 178.277C292.691 178.011 289.091 176.011 285.091 173.877Z" fill="#44B8FF"/>
<path d="M456.158 45.8773C460.024 50.0106 461.358 56.4106 459.624 62.4106C457.891 68.8106 455.358 72.1439 449.491 76.1439C437.224 84.4106 434.558 81.8773 437.758 65.0773C439.624 54.8106 442.024 48.2773 445.224 44.1439C447.491 41.4773 452.824 42.2773 456.158 45.8773Z" fill="#B974C5"/>
<path d="M465.091 25.744C476.558 33.4773 480.558 52.2772 473.491 66.4106C467.891 77.4773 449.491 90.0106 442.691 87.2106C440.691 86.544 441.224 85.8773 445.624 83.6106C462.291 74.9439 469.358 61.7439 464.291 48.5439C461.624 41.2106 456.691 37.2106 450.691 37.2106C441.091 37.2106 435.491 44.944 432.558 62.0106L430.824 72.1439L427.224 66.9439C423.091 60.9439 422.558 53.3439 425.491 43.3439C428.291 34.0106 432.824 28.2773 440.291 24.4106C448.824 20.1439 457.091 20.544 465.091 25.744Z" fill="#44B8FF"/>
<path d="M181.624 23.744C191.091 28.144 196.958 37.4773 199.758 52.5439C201.091 59.7439 200.958 60.4106 197.491 65.3439C195.491 68.2773 193.624 70.2773 193.358 70.0106C193.091 69.744 192.024 65.6106 190.958 60.8106C186.558 39.6106 175.358 30.8106 165.224 40.2773C163.491 41.8773 161.224 44.8106 160.158 46.8106C158.024 50.9439 157.758 60.8106 159.624 65.744C161.624 71.0773 170.958 80.544 176.958 83.2106C179.891 84.544 182.291 86.1439 182.291 86.8106C182.291 90.8106 165.358 83.7439 157.758 76.4106C149.758 68.6772 146.958 62.0106 146.958 50.4106C146.958 41.4773 147.358 39.6106 150.958 33.8773C158.024 22.5439 170.158 18.4106 181.624 23.744Z" fill="#44B8FF"/>
<path fill-rule="evenodd" clip-rule="evenodd" d="M177.445 154.858C177.543 154.724 177.652 154.574 177.758 154.411L181.936 152.036C183.094 151.875 185.164 151.386 188.291 150.544C193.491 149.211 199.758 147.744 202.424 147.344L207.091 146.544L203.091 138.411C190.291 112.411 208.958 81.2106 237.491 81.2106C250.024 81.2106 259.491 85.0773 268.291 93.8773C278.024 103.744 281.491 112.811 280.558 127.211C280.291 133.077 279.624 138.811 279.091 140.011C278.291 141.877 279.624 142.277 287.624 143.077C292.824 143.477 298.824 144.677 301.091 145.611C304.424 146.944 300.558 147.211 276.024 147.344C245.091 147.477 222.958 149.077 195.091 153.211C192.325 153.629 189.969 153.99 187.966 154.298C179.408 155.61 177.28 155.937 177.119 155.515C177.066 155.375 177.229 155.153 177.445 154.858ZM252.291 91.0773C269.624 99.2106 278.024 118.144 272.424 136.544C271.091 141.211 270.291 141.877 265.624 142.677C262.691 143.211 249.758 143.744 236.958 144.011L213.624 144.544L209.758 136.677C206.558 130.411 205.758 127.211 205.891 120.677C206.024 111.211 207.624 106.677 213.091 99.744C222.024 88.4106 238.824 84.6773 252.291 91.0773Z" fill="black"/>
<path d="M300.291 274.677C303.224 275.477 307.091 277.211 308.824 278.544C311.891 280.811 312.291 280.677 316.691 277.744C319.224 276.011 323.358 274.144 326.024 273.744C334.424 272.144 351.624 277.077 351.624 281.077C351.624 285.211 306.024 288.144 287.891 285.211C282.291 284.277 276.291 283.077 274.424 282.411L271.224 281.077L274.424 278.944C277.624 276.544 287.624 273.477 292.291 273.344C293.758 273.211 297.358 273.877 300.291 274.677Z" fill="#FE6E42"/>
<path fill-rule="evenodd" clip-rule="evenodd" d="M290.291 0.810612C268.424 4.27728 246.291 12.2773 226.958 23.8773C219.624 28.2773 213.224 31.8773 212.824 31.8773C212.424 31.8773 210.158 28.9439 207.891 25.3439C196.824 7.47727 173.091 0.277242 155.091 9.21058C132.291 20.6772 123.091 48.1439 134.158 72.5439C138.824 82.8106 144.024 88.8106 155.358 96.4106L164.291 102.544L164.158 123.211L163.891 143.744L154.558 152.811C144.824 162.411 140.024 170.277 136.291 183.211C133.224 193.744 134.158 213.477 138.158 223.877C139.624 227.877 140.958 231.744 140.958 232.544C140.958 233.211 137.224 236.011 132.824 238.544C123.358 243.877 111.624 256.011 107.091 264.944C105.358 268.411 102.691 275.211 101.091 280.011L98.291 288.677L87.2244 290.144C46.4244 295.611 14.291 323.077 3.62436 361.344C-4.24231 389.877 0.957688 424.411 16.691 447.477C31.2244 468.944 50.691 481.877 76.0244 487.077C88.291 489.611 96.1577 489.744 113.358 487.611C119.917 486.813 124.09 485.558 126.777 487.025C132.174 489.972 131.579 503.895 132.291 554.544C133.224 613.211 133.491 618.277 135.891 623.877C146.024 647.344 177.491 653.744 196.824 636.411C204.558 629.477 208.291 623.077 210.424 613.211C211.224 609.611 212.424 606.144 213.224 605.744C213.891 605.344 218.424 604.011 223.358 602.944C228.291 601.877 233.491 600.677 235.091 600.277C237.624 599.744 238.024 600.277 238.558 608.277C239.491 618.811 243.491 627.744 250.691 634.944C258.424 642.677 266.291 645.877 278.291 645.877C290.558 645.877 297.624 642.811 307.358 633.077L314.024 626.411L320.558 632.811C330.158 642.544 337.891 645.744 350.958 645.877C363.758 645.877 369.758 643.211 380.024 632.944L386.691 626.277L392.824 632.544C402.424 642.277 410.158 645.744 422.958 645.744C431.624 645.877 434.691 645.344 439.624 642.811C447.758 638.544 453.891 632.544 458.024 624.544C461.224 618.544 461.624 616.144 462.024 600.544L462.558 583.344L470.158 575.077C474.291 570.411 479.491 563.344 481.491 559.211C486.424 549.077 491.091 530.144 492.958 513.077C494.558 497.611 496.291 493.877 503.758 490.277C507.891 488.144 510.024 488.011 523.358 489.344C535.491 490.411 540.558 490.277 550.558 488.677C578.158 484.011 602.691 466.144 614.024 442.411C622.024 425.477 622.558 421.477 622.024 367.877L621.624 320.544L617.624 313.344C602.958 286.811 570.158 283.211 548.558 305.877C544.691 309.877 540.558 313.211 539.358 313.211C538.291 313.211 534.958 311.477 532.024 309.344L526.558 305.477L526.024 292.144C525.624 280.144 525.091 278.011 520.558 268.811C514.158 256.011 506.024 246.944 493.491 238.944C485.224 233.744 483.624 232.144 484.291 229.877C484.424 229.389 484.691 228.397 485.046 227.074L485.049 227.064C485.76 224.417 486.825 220.451 487.891 216.544C494.291 191.744 486.158 165.877 467.091 150.277L460.024 144.544V126.544C459.891 116.677 459.624 107.077 459.358 105.344C459.091 102.677 460.024 101.477 464.291 99.0773C474.424 93.3439 482.958 84.544 488.291 74.2773C492.824 65.6106 493.491 63.2106 494.024 53.2106C494.691 38.6772 491.491 29.6106 482.291 19.4773C466.558 2.2773 444.291 0.543941 424.558 15.0773C422.424 16.5439 418.558 20.8106 415.891 24.5439C414.424 26.5238 413.079 28.423 412.12 29.7759C411.336 30.8829 410.811 31.624 410.691 31.744C410.558 32.0106 407.091 30.144 403.091 27.4773C399.224 24.944 391.091 20.2773 385.224 17.3439C359.358 4.4106 340.024 -0.256043 312.024 0.0106239C301.891 0.143957 292.158 0.410612 290.291 0.810612ZM413.358 58.4106C391.758 37.7439 366.691 24.6772 337.891 19.2106C325.091 16.8106 297.091 16.8106 284.958 19.2106C235.624 29.0772 192.558 64.6772 182.824 103.744C179.891 115.744 180.558 139.077 184.158 144.544C185.624 146.677 186.158 148.544 185.358 148.811C184.558 149.077 181.982 150.921 181.491 151.211C181 151.5 181.217 151.372 180.791 151.931C180.365 152.489 176.945 153.96 177.5 153.643C176.083 153.991 171.776 157.016 167.758 160.544C161.624 166.144 159.224 173.344 159.358 185.744C159.624 201.344 163.491 209.744 176.558 222.944C185.224 231.744 202.291 240.944 216.958 244.811C228.958 248.011 259.624 248.011 271.624 244.811C284.291 241.477 298.558 234.011 305.758 227.077L311.891 220.944L316.824 225.744C341.491 249.744 390.558 254.944 426.958 237.344C454.291 224.144 469.891 198.811 464.958 175.877C462.824 165.744 458.291 160.544 444.558 152.544C437.224 148.277 436.024 147.077 438.024 146.411C440.024 145.611 440.958 143.077 442.291 134.811C446.424 107.877 435.891 80.0106 413.358 58.4106ZM199.758 52.5439C196.958 37.4773 191.091 28.144 181.624 23.744C170.158 18.4106 158.024 22.5439 150.958 33.8773C147.358 39.6106 146.958 41.4773 146.958 50.4106C146.958 62.0106 149.758 68.6772 157.758 76.4106C165.358 83.7439 182.291 90.8106 182.291 86.8106C182.291 86.1439 179.891 84.544 176.958 83.2106C170.958 80.544 161.624 71.0773 159.624 65.744C157.758 60.8106 158.024 50.9439 160.158 46.8106C161.224 44.8106 163.491 41.8773 165.224 40.2773C175.358 30.8106 186.558 39.6106 190.958 60.8106C192.024 65.6106 193.091 69.744 193.358 70.0106C193.624 70.2773 195.491 68.2773 197.491 65.3439C200.958 60.4106 201.091 59.7439 199.758 52.5439ZM473.491 66.4106C480.558 52.2772 476.558 33.4773 465.091 25.744C457.091 20.544 448.824 20.1439 440.291 24.4106C432.824 28.2773 428.291 34.0106 425.491 43.3439C422.558 53.3439 423.091 60.9439 427.224 66.9439L430.824 72.1439L432.558 62.0106C435.491 44.944 441.091 37.2106 450.691 37.2106C456.691 37.2106 461.624 41.2106 464.291 48.5439C469.358 61.7439 462.291 74.9439 445.624 83.6106C441.224 85.8773 440.691 86.544 442.691 87.2106C449.491 90.0106 467.891 77.4773 473.491 66.4106ZM186.558 79.744C189.491 75.344 184.824 52.8106 179.491 46.0106C175.358 40.6773 168.958 41.4773 165.624 47.8773C162.958 52.9439 163.091 61.6106 165.758 67.2106C169.491 75.2106 183.758 83.744 186.558 79.744ZM459.624 62.4106C461.358 56.4106 460.024 50.0106 456.158 45.8773C452.824 42.2773 447.491 41.4773 445.224 44.1439C442.024 48.2773 439.624 54.8106 437.758 65.0773C434.558 81.8773 437.224 84.4106 449.491 76.1439C455.358 72.1439 457.891 68.8106 459.624 62.4106ZM202.291 273.877C190.824 268.144 172.558 255.344 166.424 248.677C162.558 244.677 161.491 244.544 151.358 247.744C141.758 250.811 135.758 254.544 129.758 261.211C119.224 272.944 110.291 299.344 116.291 301.611C118.558 302.544 118.691 302.411 121.491 293.611C124.024 286.011 129.891 279.877 134.691 279.877C139.891 279.877 145.891 284.677 147.624 290.144C147.996 291.446 148.426 292.806 148.806 293.995L148.965 294.493L148.966 294.495C149.332 295.639 149.633 296.578 149.758 297.077C150.158 298.144 151.624 296.544 153.358 293.211C161.491 277.877 177.358 277.611 185.891 292.544C188.024 296.411 188.958 297.077 188.958 295.211C188.958 290.411 193.891 284.277 198.958 282.544C203.091 281.211 204.824 281.344 209.624 283.077C212.824 284.277 216.958 286.811 218.824 288.544C221.891 291.477 222.291 291.477 222.291 289.211C222.291 285.744 215.624 280.544 202.291 273.877ZM507.758 284.011C502.691 267.611 493.758 257.211 479.091 250.544C465.358 244.144 464.158 244.277 454.291 252.677C442.158 263.077 436.424 266.944 418.691 276.277C406.158 283.077 402.958 285.344 402.158 288.144L401.224 291.744L406.424 287.611C413.891 281.611 424.024 280.811 429.358 285.744C431.358 287.611 433.358 291.077 433.891 293.344L434.691 297.611L436.691 293.744C445.091 277.077 464.024 277.877 471.758 295.077C473.358 298.811 474.158 299.611 474.291 297.877C474.558 289.611 482.824 279.877 489.491 279.877C493.224 279.877 499.624 287.077 502.691 294.677C505.224 301.077 506.158 302.011 508.024 300.944C510.958 299.344 510.958 294.144 507.758 284.011ZM308.824 278.544C307.091 277.211 303.224 275.477 300.291 274.677C297.358 273.877 293.758 273.211 292.291 273.344C287.624 273.477 277.624 276.544 274.424 278.944L271.224 281.077L274.424 282.411C276.291 283.077 282.291 284.277 287.891 285.211C306.024 288.144 351.624 285.211 351.624 281.077C351.624 277.077 334.424 272.144 326.024 273.744C323.358 274.144 319.224 276.011 316.691 277.744C312.291 280.677 311.891 280.811 308.824 278.544ZM145.891 306.677C145.091 297.344 142.158 288.144 139.224 286.277C136.024 284.277 131.758 285.211 129.091 288.677C126.291 292.277 122.291 303.611 122.291 308.144C122.291 311.611 132.024 315.877 140.158 315.877H146.691L145.891 306.677ZM502.291 308.411C502.291 305.211 496.958 292.144 494.158 288.677C487.091 279.611 480.158 287.744 477.624 308.411L476.691 315.877H483.758C491.491 315.877 502.291 311.611 502.291 308.411ZM186.291 308.677C186.291 302.677 183.224 295.211 178.958 290.944C170.691 282.677 159.491 286.544 155.091 299.477C150.691 312.144 153.491 315.877 167.224 315.877C177.758 315.877 186.291 312.677 186.291 308.677ZM219.624 298.677C219.624 295.611 214.824 291.211 208.691 288.544C202.958 286.277 202.691 286.277 198.691 288.144C193.224 290.811 190.958 305.744 195.358 309.611C199.891 313.744 206.958 312.144 214.824 305.211C217.491 302.811 219.624 299.877 219.624 298.677ZM430.958 300.944C429.491 293.211 427.491 289.611 424.158 288.011C422.376 287.206 421.362 286.748 420.326 286.691C418.959 286.615 417.553 287.236 414.291 288.677C408.424 291.211 403.624 295.611 403.624 298.544C403.624 303.344 416.291 311.877 423.491 311.877C428.958 311.877 432.158 307.077 430.958 300.944ZM467.624 313.877C472.691 309.344 469.358 295.477 461.624 289.477C452.424 282.144 440.424 290.144 437.624 305.477C436.691 310.144 436.824 310.411 442.558 313.344C450.158 317.211 463.491 317.611 467.624 313.877ZM139.224 324.011C134.691 323.077 124.691 319.611 116.958 316.411C101.891 309.877 94.8244 308.677 84.0244 310.677C60.5577 314.811 38.291 331.477 28.4244 352.277C22.0244 365.877 20.291 374.411 20.4244 391.211C20.5577 403.477 21.091 407.611 24.1577 416.544C35.091 448.544 61.3577 468.011 93.6244 468.144C114.958 468.277 131.358 461.477 145.491 446.544C163.224 427.611 169.491 402.811 160.291 387.211C154.024 376.411 152.424 375.877 126.024 375.877C110.424 375.877 101.891 376.411 99.7577 377.611C87.7577 383.744 88.1577 401.744 100.291 407.744C102.424 408.811 108.024 409.611 112.824 409.744C117.758 409.877 122.424 410.411 123.358 411.077C127.891 413.877 121.491 423.877 112.291 428.011C96.0244 435.477 74.0244 427.077 65.3577 410.011C60.691 401.077 59.491 382.811 62.8244 373.877C68.9577 357.877 82.0244 349.077 99.7577 349.077C109.891 349.077 116.424 350.677 128.424 355.877C132.958 357.877 136.424 358.677 138.691 358.011C143.758 356.811 150.824 350.144 153.491 344.011C158.158 333.877 152.958 326.544 139.224 324.011ZM425.491 319.344C417.224 319.211 415.224 318.677 409.091 314.811C402.824 310.944 401.091 310.544 392.558 310.677C372.424 310.944 354.158 318.544 339.491 333.211C318.958 353.611 311.891 386.277 321.491 416.811C331.358 447.744 358.424 467.877 390.558 468.144C404.291 468.144 413.491 466.277 423.624 461.211C443.091 451.344 456.558 433.877 460.958 412.677C463.758 398.811 460.158 386.144 451.224 379.344C446.824 375.877 446.291 375.877 423.758 375.877C398.424 375.877 394.558 376.811 390.958 383.877C388.291 388.944 388.424 396.544 391.091 401.211C394.558 406.944 400.291 409.611 410.158 409.877C418.465 410.145 421.087 410.174 421.913 411.406C422.32 412.014 422.291 412.913 422.291 414.277C422.291 416.811 420.824 419.477 418.024 422.277C400.958 438.677 369.891 429.877 361.091 406.144C355.491 390.677 358.291 372.144 368.024 361.611C376.158 352.811 382.158 350.144 395.624 349.477C405.491 348.944 408.291 349.344 416.958 352.544C430.485 357.341 433.727 358.617 436.567 358.012C437.674 357.776 438.721 357.254 440.291 356.544C447.224 353.211 452.958 344.944 452.958 338.277C452.958 330.944 451.491 328.811 442.691 323.744C436.024 320.011 433.624 319.344 425.491 319.344ZM601.624 371.877C601.624 321.211 601.491 320.677 593.091 314.677C584.024 308.144 569.224 310.944 563.624 320.144C561.091 324.277 560.958 326.811 560.958 368.544C560.958 408.544 560.691 413.077 558.424 418.011C551.758 432.677 532.024 436.011 520.824 424.411L516.291 419.744L514.958 323.877L511.491 320.544L508.158 317.077L499.224 320.411C494.424 322.277 486.691 324.277 482.024 324.811L473.624 325.877L473.224 369.211C472.958 404.677 473.224 414.277 474.958 422.011C478.691 438.944 490.558 454.544 505.224 462.011C523.758 471.477 548.958 471.344 567.891 461.744C576.158 457.477 589.091 445.611 593.491 438.011C601.358 424.411 601.624 421.877 601.624 371.877ZM255.758 425.611C247.224 432.811 233.891 433.344 226.158 426.944C218.291 420.278 218.291 420.144 218.158 370.951V370.944C218.158 346.144 217.624 323.477 217.224 320.544L216.291 315.211L208.424 317.744C201.891 319.877 199.624 320.011 195.091 318.811C190.158 317.477 189.358 317.744 186.291 320.411C184.424 322.011 181.358 324.411 179.358 325.611L175.624 327.877V370.544C175.624 396.411 176.158 415.877 177.091 420.144C180.558 436.811 192.958 453.877 207.091 461.477C238.158 478.277 281.224 466.811 296.691 437.477C304.691 422.411 304.958 419.877 304.958 369.744C304.958 328.277 304.691 323.877 302.691 321.344C300.691 319.077 297.491 318.144 284.958 316.544C276.558 315.477 268.291 314.544 266.691 314.544H263.624V363.877C263.624 418.011 263.491 419.077 255.758 425.611ZM254.691 511.611C247.224 495.744 234.158 486.011 214.958 481.877C204.824 479.744 183.891 479.477 174.424 481.344C165.491 483.077 159.224 486.944 156.024 492.677C153.091 497.877 152.958 498.277 152.958 555.211C152.958 609.744 153.091 612.811 155.624 616.811C159.358 622.944 165.224 625.611 173.491 624.811C179.091 624.277 180.824 623.477 185.224 618.811L190.291 613.344V601.344C190.291 590.411 190.558 589.211 193.224 587.344C194.958 586.011 198.958 585.211 202.958 585.211C224.824 585.211 245.758 572.277 254.824 553.211C258.424 545.477 258.958 543.211 258.958 532.544C258.958 521.877 258.424 519.611 254.691 511.611ZM348.291 501.877C343.891 492.677 334.691 484.544 325.891 481.877C314.691 478.544 305.624 479.477 294.958 484.944C283.091 490.944 277.491 501.344 272.424 526.544C267.491 550.944 262.691 579.877 260.824 596.277C259.358 609.077 259.358 611.077 261.358 615.211C266.958 626.811 283.224 628.677 292.158 618.677C293.624 617.077 295.491 612.411 296.291 608.144C298.158 598.677 300.558 597.211 314.291 597.211C326.291 597.211 329.758 599.077 331.091 606.277C333.358 618.544 340.291 625.211 350.958 625.211C360.958 625.211 368.958 617.344 368.958 607.611C368.958 594.011 352.824 511.477 348.291 501.877ZM470.958 522.677C474.691 498.544 472.958 488.144 464.691 483.744C453.891 477.877 440.158 481.477 437.091 490.811C436.291 493.211 435.091 503.477 434.424 513.744C433.358 530.011 432.824 532.544 430.158 535.344C426.024 539.744 418.558 539.744 414.291 535.211C411.624 532.277 410.958 529.611 409.358 512.277C408.158 499.744 406.824 491.477 405.491 489.477C400.158 481.211 387.624 478.811 379.491 484.277C372.158 489.211 371.358 491.877 372.158 509.211C372.824 527.211 375.624 541.344 380.158 550.277C383.491 556.944 392.291 565.611 399.358 569.477L403.624 571.744V590.811C403.624 606.277 404.024 610.811 406.024 614.544C413.091 628.677 432.824 628.677 439.891 614.544C441.891 610.677 442.291 606.277 442.291 590.277V570.811L448.824 565.877C461.624 556.544 467.624 544.811 470.958 522.677Z" fill="black"/>
<path d="M494.158 288.677C496.958 292.144 502.291 305.211 502.291 308.411C502.291 311.611 491.491 315.877 483.758 315.877H476.691L477.624 308.411C480.158 287.744 487.091 279.611 494.158 288.677Z" fill="#94C8FC"/>
<path d="M461.624 289.477C469.358 295.477 472.691 309.344 467.624 313.877C463.491 317.611 450.158 317.211 442.558 313.344C436.824 310.411 436.691 310.144 437.624 305.477C440.424 290.144 452.424 282.144 461.624 289.477Z" fill="#94C8FC"/>
<path d="M424.158 288.011C427.491 289.611 429.491 293.211 430.958 300.944C432.158 307.077 428.958 311.877 423.491 311.877C416.291 311.877 403.624 303.344 403.624 298.544C403.624 295.611 408.424 291.211 414.291 288.677C417.553 287.236 418.959 286.615 420.326 286.691C421.362 286.748 422.376 287.206 424.158 288.011Z" fill="#94C8FC"/>
<path d="M208.691 288.544C214.824 291.211 219.624 295.611 219.624 298.677C219.624 299.877 217.491 302.811 214.824 305.211C206.958 312.144 199.891 313.744 195.358 309.611C190.958 305.744 193.224 290.811 198.691 288.144C202.691 286.277 202.958 286.277 208.691 288.544Z" fill="#94C8FC"/>
<path d="M139.224 286.277C142.158 288.144 145.091 297.344 145.891 306.677L146.691 315.877H140.158C132.024 315.877 122.291 311.611 122.291 308.144C122.291 303.611 126.291 292.277 129.091 288.677C131.758 285.211 136.024 284.277 139.224 286.277Z" fill="#94C8FC"/>
<path d="M178.958 290.944C183.224 295.211 186.291 302.677 186.291 308.677C186.291 312.677 177.758 315.877 167.224 315.877C153.491 315.877 150.691 312.144 155.091 299.477C159.491 286.544 170.691 282.677 178.958 290.944Z" fill="#94C8FC"/>
<path d="M179.491 46.0106C184.824 52.8106 189.491 75.344 186.558 79.744C183.758 83.744 169.491 75.2106 165.758 67.2106C163.091 61.6106 162.958 52.9439 165.624 47.8773C168.958 41.4773 175.358 40.6773 179.491 46.0106Z" fill="#B974C5"/>
<path d="M166.424 248.677C172.558 255.344 190.824 268.144 202.291 273.877C215.624 280.544 222.291 285.744 222.291 289.211C222.291 291.477 221.891 291.477 218.824 288.544C216.958 286.811 212.824 284.277 209.624 283.077C204.824 281.344 203.091 281.211 198.958 282.544C193.891 284.277 188.958 290.411 188.958 295.211C188.958 297.077 188.024 296.411 185.891 292.544C177.358 277.611 161.491 277.877 153.358 293.211C151.624 296.544 150.158 298.144 149.758 297.077C149.633 296.578 149.332 295.639 148.966 294.495L148.965 294.493L148.806 293.995C148.426 292.806 147.996 291.446 147.624 290.144C145.891 284.677 139.891 279.877 134.691 279.877C129.891 279.877 124.024 286.011 121.491 293.611C118.691 302.411 118.558 302.544 116.291 301.611C110.291 299.344 119.224 272.944 129.758 261.211C135.758 254.544 141.758 250.811 151.358 247.744C161.491 244.544 162.558 244.677 166.424 248.677Z" fill="#47B6F7"/>
<path d="M479.091 250.544C493.758 257.211 502.691 267.611 507.758 284.011C510.958 294.144 510.958 299.344 508.024 300.944C506.158 302.011 505.224 301.077 502.691 294.677C499.624 287.077 493.224 279.877 489.491 279.877C482.824 279.877 474.558 289.611 474.291 297.877C474.158 299.611 473.358 298.811 471.758 295.077C464.024 277.877 445.091 277.077 436.691 293.744L434.691 297.611L433.891 293.344C433.358 291.077 431.358 287.611 429.358 285.744C424.024 280.811 413.891 281.611 406.424 287.611L401.224 291.744L402.158 288.144C402.958 285.344 406.158 283.077 418.691 276.277C436.424 266.944 442.158 263.077 454.291 252.677C464.158 244.277 465.358 244.144 479.091 250.544Z" fill="#47B6F7"/>
<path d="M167.181 159C167.601 159.841 168.022 160.683 168.455 161.55C168.069 162.687 167.683 163.824 167.285 164.995C163.7 175.92 164.787 189.41 169.73 199.793C181.728 219.392 201.17 230.068 222.919 235.386C246.673 240.388 275.447 237.237 295.996 224.013C299.176 221.739 301.927 219.373 304.599 216.524C307.387 213.815 307.387 213.815 312.486 213.815C314.587 215.453 314.587 215.453 316.788 217.719C334.476 233.843 358.748 238.114 381.897 237.329C404.85 235.897 428.064 227.149 443.77 209.991C453.735 197.911 457.878 184.781 456.516 169.198C456.128 167.067 455.714 164.939 455.242 162.824C461.358 167.85 464.802 174.055 465.74 181.923C467.121 201.492 463.162 216.568 450.143 231.662C436.955 246.097 418.116 254.06 398.776 255.006C383.726 255.459 370.118 254.527 355.822 249.509C354.815 249.16 353.808 248.811 352.771 248.451C339.411 243.711 327.582 238.239 316.115 229.864C312.689 227.541 312.689 227.541 309.125 227.952C306.035 229.142 303.816 230.474 301.174 232.459C285.638 243.123 268.057 248.472 250.03 253.333C248.823 253.685 248.823 253.685 247.591 254.044C226.921 258.425 203.284 255.589 185.543 244.096C175.383 236.689 167.212 228.497 160.808 217.639C160.254 216.734 159.7 215.829 159.13 214.896C155.418 207.537 155.19 200.155 155.072 192.064C155.048 190.995 155.024 189.925 155 188.823C155.109 177.984 159.375 166.806 167.181 159Z" fill="#3E6EA5"/>
<path d="M212 266.937C239.589 265.292 239.589 265.292 247.155 271.281C248.124 272.153 249.092 273.024 250.09 273.922C269.018 290.466 302.866 289.703 326.814 289.181C348.324 288.395 368.544 284.257 386.31 272.389C387.76 271.939 389.21 271.489 390.704 271.026C391.188 269.677 391.671 268.327 392.169 266.937C401.353 266.937 410.537 266.937 420 266.937C408.135 280.738 390.62 287.013 373.127 292.834C372.084 293.182 371.042 293.53 369.968 293.889C327.827 307.533 280.03 303.317 239.928 286.088C229.027 281.13 220.457 274.984 212 266.937Z" fill="#3C6797"/>
<path d="M482.085 254C486.602 255.073 489.802 257.238 493.691 261.038C494.656 261.964 495.621 262.89 496.615 263.844C499.417 266.957 501.669 270.336 504 274.308C503.619 275.526 503.239 276.745 502.847 278C499.601 276.816 496.357 275.622 493.114 274.423C492.189 274.086 491.263 273.75 490.31 273.403C483.369 270.825 483.369 270.825 482.085 268.769C481.922 263.839 482.036 258.94 482.085 254Z" fill="#BED9ED"/>
<path d="M139.507 257.322C138.658 262.266 137.809 267.21 136.934 272.303C132.168 272.757 127.403 273.21 122.493 273.678C125.713 266.947 126.943 265.046 131.127 261.184C132.026 260.335 132.926 259.485 133.853 258.61C136.323 256.775 136.323 256.775 139.507 257.322Z" fill="#B7DAF1"/>
</svg>